<svg xmlns="http://www.w3.org/2000/svg" width="32" height="32" viewBox="350 210 320 220">
  <path fill="#14b8a6" d="M388 286q17.018.056 34.035.184 7.904.062 15.809.087c5.096.015 10.192.05 15.289.097q2.9.023 5.799.024c13.99.012 28.152.447 40.13 8.608l1.712 1.161c6.168 4.296 11.806 9.235 17.411 14.23 2.52 2.235 5.075 4.43 7.628 6.627a930 930 0 0 1 17.011 15.017c9.678 8.74 19.577 17.294 29.739 25.465 4.724 3.83 9.163 7.903 13.6 12.056 4.211 3.923 8.601 7.563 13.09 11.167 3.01 2.495 5.886 5.115 8.747 7.777 6.056 5.632 12.314 11.06 18.984 15.957 2.861 2.146 3.944 3.293 4.953 6.793L632 414c-2.079 2.079-6.594 1.157-9.46 1.161l-2.691.015q-4.434.021-8.869.027l-6.164.017q-6.483.015-12.966.02a3947 3947 0 0 0-16.54.058c-4.252.019-8.505.024-12.757.026q-3.045.004-6.092.024c-31.153.188-48.63-12.374-70.754-32.856-2.862-2.635-5.776-5.2-8.715-7.75-3.222-2.818-6.389-5.698-9.566-8.566a466 466 0 0 0-6.238-5.488c-4.332-3.764-8.522-7.678-12.709-11.601-2.412-2.248-4.729-4.254-7.479-6.087v-2l-1.774-.798c-2.325-1.255-3.932-2.609-5.835-4.432l-2.04-1.936-2.101-2.022c-4.702-4.492-9.446-8.895-14.362-13.154a188 188 0 0 1-5.189-4.748l-1.521-1.435a470 470 0 0 1-3.04-2.907c-3.032-2.99-3.032-2.99-7.138-3.568l-.707-1.73c-2.075-3.643-5.348-6.035-8.492-8.758C387 293 387 293 387.387 289.343z"/>
  <path fill="#14b8a6" d="M556 229q17.72.126 35.44.288 8.227.076 16.454.134 7.937.056 15.873.136 3.03.029 6.063.045c2.825.017 5.65.046 8.476.078l2.546.007c3.89.056 5.838.106 9.148 2.312.493 3.124.249 4.582-1.375 7.313L647 241h-2l-.75 1.875c-1.487 2.529-2.687 2.843-5.25 4.125-1.268 2.034-1.268 2.034-2 4h-2v5l-2.312.688c-3.235 1.58-4.104 3.145-5.688 6.312l-3-1 1 3-1.648.719c-2.965 1.615-5.38 3.626-7.977 5.781l-2.914 2.406c-2.44 2.019-2.44 2.019-4.461 4.094a77 77 0 0 1-4 1 806 806 0 0 0-8.54 3.063c-10.557 2.86-21.858 2.084-32.706 2.07l-5.586.003q-5.823.002-11.646-.006-7.47-.006-14.937.004-5.753.005-11.506 0-2.755 0-5.511.002-3.838.003-7.675-.007l-2.3.007c-3.137-.013-5.594-.136-8.593-1.136-.707-2.207-.707-2.207-1-5 1.3-2.324 1.3-2.324 3.313-4.687l2.226-2.618c4.006-4.387 8.2-8.558 12.461-12.695 2.58-2.535 4.966-4.956 7.188-7.812C528.605 238.81 541.818 232.866 556 230z"/>
</svg>
