<svg xmlns="http://www.w3.org/2000/svg" viewBox="0 0 32 32">
  <rect width="32" height="32" rx="6" fill="#0F0F11"/>

  <g fill="#CDEA68" stroke="#CDEA68">
    <!-- Vertical bar -->
    <rect x="5" y="3" width="4" height="26" rx="0"/>

    <!-- Top chevrons (double arrows) -->
    <path d="M12 3L18 9L16 11L10 5Z" fill="#CDEA68" stroke="none"/>
    <path d="M15 3L21 9L19 11L13 5Z" fill="#CDEA68" stroke="none"/>
    <path d="M18 3L24 9L22 11L16 5Z" fill="#CDEA68" stroke="none"/>
    <path d="M21 3L27 9L25 11L19 5Z" fill="#CDEA68" stroke="none"/>

    <!-- Upper circuit line with nodes -->
    <line x1="9" y1="12" x2="18" y2="21" stroke="#CDEA68" stroke-width="3" stroke-linecap="round"/>
    <circle cx="10" cy="13" r="2.5" fill="#CDEA68"/>
    <circle cx="17" cy="20" r="2.5" fill="#CDEA68"/>

    <!-- Lower circuit line with nodes -->
    <line x1="9" y1="17" x2="16" y2="24" stroke="#CDEA68" stroke-width="3" stroke-linecap="round"/>
    <line x1="16" y1="24" x2="24" y2="28" stroke="#CDEA68" stroke-width="3" stroke-linecap="round"/>
    <circle cx="10" cy="18" r="2.5" fill="#CDEA68"/>
    <circle cx="16" cy="24" r="2.5" fill="#CDEA68"/>
  </g>
</svg>