<svg xmlns="http://www.w3.org/2000/svg" width="1024" height="682"><path d="M0 0h1024v682H0zm556 229v1l-2.203.445C537.859 234.001 525.06 242.16 515 255a251 251 0 0 1-5 5c-8.896 8.272-8.896 8.272-16 18 .031 2.85.031 2.85 1 5 3.657 1.219 7.022 1.148 10.83 1.145l2.415.01q3.966.013 7.93.013l5.537.01q5.817.009 11.634.007c4.934 0 9.869.014 14.803.031q5.728.015 11.456.013 2.725 0 5.45.013c19.618.32 19.618.32 38.12-5.375C605 278 605 278 607.75 277.562c3.384-.846 4.902-3.042 7.25-5.562 3.083-2.804 6.128-5.362 10-7l-1-3 3 1 1.75-2.937C631 257 631 257 633.25 256.125L635 256v-5l4-2v-2l1.875-.75c2.476-1.456 3.076-2.628 4.125-5.25h2c2.123-2.205 2.94-3.574 3.375-6.625L650 232c-3.892-2.595-7.177-2.307-11.694-2.319l-2.691-.03c-2.938-.031-5.876-.048-8.814-.065q-3.054-.028-6.108-.059c-5.361-.051-10.722-.09-16.083-.128-5.47-.04-10.94-.091-16.409-.141q-16.1-.144-32.201-.258m-168 57c-.708 3.358-.708 3.358-1 7 1.79 2.342 3.25 3.937 5.438 5.813 1.888 1.7 3.732 3.422 5.562 5.187v2l1.76.29c2.73.865 4.018 2.075 6.068 4.062l2.176 2.082 2.246 2.191a3181 3181 0 0 0 6.585 6.337c2.7 2.542 5.485 4.974 8.29 7.4a206 206 0 0 1 5.21 4.728l1.536 1.435q1.543 1.449 3.078 2.907c2.591 2.728 2.591 2.728 6.051 3.568v2c1.346 1.4 1.346 1.4 3.188 2.875 3.74 3.175 7.353 6.464 10.937 9.813a394 394 0 0 0 13.813 12.25 393 393 0 0 1 14.437 12.875l1.799 1.68 1.728 1.616c3.626 3.39 7.29 6.706 11.098 9.891l1.628 1.372c14.591 12.224 28.15 19.824 47.59 19.742h2.752q4.48-.002 8.96-.016l6.23-.005q8.181-.006 16.363-.024 8.355-.014 16.711-.02 16.383-.016 32.766-.049c.692-2.374.692-2.374 1-5-2.101-2.64-2.101-2.64-5-5l-2.613-2.43c-11.154-10.104-22.556-19.906-34.016-29.66-5.426-4.625-10.808-9.272-16.058-14.098-4.387-4.026-8.93-7.793-13.563-11.53-3.788-3.143-7.38-6.481-11-9.813-2.687-2.413-5.44-4.702-8.25-6.969a223 223 0 0 1-11-9.5c-4.494-4.135-9.132-8.023-13.89-11.848-2.418-1.994-4.698-4.074-6.985-6.214-16.194-14.385-32.741-16.538-53.559-16.547q-2.961-.023-5.921-.05c-5.144-.044-10.288-.064-15.432-.08-5.27-.019-10.54-.06-15.809-.1A7922 7922 0 0 0 388 286" id="svg-layer-0" style="pointer-events: all; fill: none;" fill="none"/><path fill="#14b8a6" d="M388 286q17.018.056 34.035.184 7.904.062 15.809.087c5.096.015 10.192.05 15.289.097q2.9.023 5.799.024c13.99.012 28.152.447 40.13 8.608l1.712 1.161c6.168 4.296 11.806 9.235 17.411 14.23 2.52 2.235 5.075 4.43 7.628 6.627a930 930 0 0 1 17.011 15.017c9.678 8.74 19.577 17.294 29.739 25.465 4.724 3.83 9.163 7.903 13.6 12.056 4.211 3.923 8.601 7.563 13.09 11.167 3.01 2.495 5.886 5.115 8.747 7.777 6.056 5.632 12.314 11.06 18.984 15.957 2.861 2.146 3.944 3.293 4.953 6.793L632 414c-2.079 2.079-6.594 1.157-9.46 1.161l-2.691.015q-4.434.021-8.869.027l-6.164.017q-6.483.015-12.966.02a3947 3947 0 0 0-16.54.058c-4.252.019-8.505.024-12.757.026q-3.045.004-6.092.024c-31.153.188-48.63-12.374-70.754-32.856-2.862-2.635-5.776-5.2-8.715-7.75-3.222-2.818-6.389-5.698-9.566-8.566a466 466 0 0 0-6.238-5.488c-4.332-3.764-8.522-7.678-12.709-11.601-2.412-2.248-4.729-4.254-7.479-6.087v-2l-1.774-.798c-2.325-1.255-3.932-2.609-5.835-4.432l-2.04-1.936-2.101-2.022c-4.702-4.492-9.446-8.895-14.362-13.154a188 188 0 0 1-5.189-4.748l-1.521-1.435a470 470 0 0 1-3.04-2.907c-3.032-2.99-3.032-2.99-7.138-3.568l-.707-1.73c-2.075-3.643-5.348-6.035-8.492-8.758C387 293 387 293 387.387 289.343zM556 229q17.72.126 35.44.288 8.227.076 16.454.134 7.937.056 15.873.136 3.03.029 6.063.045c2.825.017 5.65.046 8.476.078l2.546.007c3.89.056 5.838.106 9.148 2.312.493 3.124.249 4.582-1.375 7.313L647 241h-2l-.75 1.875c-1.487 2.529-2.687 2.843-5.25 4.125-1.268 2.034-1.268 2.034-2 4h-2v5l-2.312.688c-3.235 1.58-4.104 3.145-5.688 6.312l-3-1 1 3-1.648.719c-2.965 1.615-5.38 3.626-7.977 5.781l-2.914 2.406c-2.44 2.019-2.44 2.019-4.461 4.094a77 77 0 0 1-4 1 806 806 0 0 0-8.54 3.063c-10.557 2.86-21.858 2.084-32.706 2.07l-5.586.003q-5.823.002-11.646-.006-7.47-.006-14.937.004-5.753.005-11.506 0-2.755 0-5.511.002-3.838.003-7.675-.007l-2.3.007c-3.137-.013-5.594-.136-8.593-1.136-.707-2.207-.707-2.207-1-5 1.3-2.324 1.3-2.324 3.313-4.687l2.226-2.618c4.006-4.387 8.2-8.558 12.461-12.695 2.58-2.535 4.966-4.956 7.188-7.812C528.605 238.81 541.818 232.866 556 230z" id="svg-layer-1" style="pointer-events: all; fill: rgb(20, 184, 166);"/></svg>